<svg width="49" height="49" viewBox="0 0 49 49" fill="none" xmlns="http://www.w3.org/2000/svg">
<g id="flat-color-icons:google">
<path id="Vector" d="M44.5195 20.5014H42.8749V20.4167H24.4999V28.5834H36.0384C34.355 33.3374 29.8317 36.75 24.4999 36.75C17.7349 36.75 12.2499 31.2651 12.2499 24.5C12.2499 17.735 17.7349 12.25 24.4999 12.25C27.6226 12.25 30.4636 13.4281 32.6268 15.3524L38.4016 9.5775C34.7552 6.17914 29.8777 4.08337 24.4999 4.08337C13.2248 4.08337 4.08325 13.2249 4.08325 24.5C4.08325 35.7751 13.2248 44.9167 24.4999 44.9167C35.775 44.9167 44.9166 35.7751 44.9166 24.5C44.9166 23.1311 44.7757 21.7948 44.5195 20.5014Z" fill="#FFC107"/>
<path id="Vector_2" d="M6.43726 14.9971L13.1452 19.9165C14.9602 15.4228 19.3559 12.25 24.4999 12.25C27.6226 12.25 30.4636 13.4281 32.6267 15.3524L38.4016 9.5775C34.7552 6.17914 29.8776 4.08337 24.4999 4.08337C16.6578 4.08337 9.85705 8.51073 6.43726 14.9971Z" fill="#FF3D00"/>
<path id="Vector_3" d="M24.1759 45.2782C29.4496 45.2782 34.2414 43.26 37.8643 39.978L31.5453 34.6309C29.4266 36.2422 26.8377 37.1137 24.1759 37.1115C18.8656 37.1115 14.3565 33.7254 12.6579 29L6 34.1297C9.37896 40.7416 16.241 45.2782 24.1759 45.2782Z" fill="#4CAF50"/>
<path id="Vector_4" d="M44.5196 20.5014H42.875V20.4166H24.5V28.5833H36.0385C35.2333 30.8459 33.7828 32.823 31.8663 34.2704L31.8694 34.2683L38.1884 39.6154C37.7412 40.0217 44.9167 34.7083 44.9167 24.5C44.9167 23.131 44.7758 21.7948 44.5196 20.5014Z" fill="#1976D2"/>
</g>
</svg>
