<svg width="49" height="49" viewBox="0 0 49 49" fill="none" xmlns="http://www.w3.org/2000/svg">
<path id="Vector" d="M3.43 3.43C7.15256e-07 6.89267 0 12.4297 0 23.52V25.48C0 36.554 7.15256e-07 42.091 3.43 45.57C6.89267 49 12.4297 49 23.52 49H25.48C36.554 49 42.091 49 45.57 45.57C49 42.1073 49 36.5703 49 25.48V23.52C49 12.446 49 6.909 45.57 3.43C42.1073 7.15256e-07 36.5703 0 25.48 0H23.52C12.446 0 6.909 7.15256e-07 3.43 3.43ZM8.26467 14.9123H13.8833C14.063 24.255 18.179 28.2077 21.4457 29.0243V14.9123H26.7213V22.9647C29.939 22.6217 33.3363 18.9467 34.4797 14.896H39.739C39.3103 16.9929 38.4538 18.9788 37.2228 20.7296C35.9919 22.4805 34.4131 23.9586 32.585 25.0717C34.6251 26.0867 36.4268 27.5228 37.8711 29.2853C39.3155 31.0478 40.3696 33.0965 40.964 35.2963H35.1657C33.9243 31.4253 30.821 28.42 26.7213 28.0117V35.2963H26.068C14.896 35.2963 8.526 27.6523 8.26467 14.9123Z" fill="#85B6FF"/>
</svg>
